<svg width="20" height="20" viewBox="0 0 20 20" fill="none" xmlns="http://www.w3.org/2000/svg">
<path d="M15.3482 3.83333H14.1045V3.33333C14.1045 2.83333 13.7728 2.5 13.2753 2.5C12.7778 2.5 12.4461 2.83333 12.4461 3.33333V3.83333H9.29518C8.79767 3.83333 8.46599 4.16667 8.46599 4.66667C8.46599 5.16667 8.79767 5.5 9.29518 5.5H12.529V6C12.529 6.5 12.8607 6.83333 13.3582 6.83333C13.8557 6.83333 14.1874 6.5 14.1874 6V5.5H15.4312C16.0116 5.5 16.592 6 16.592 6.66667V7.83333H3.32503V6.66667C3.32503 6 3.90546 5.5 4.56881 5.5H5.81259V6C5.81259 6.5 6.14427 6.83333 6.64178 6.83333C7.13929 6.83333 7.47097 6.5 7.47097 6V4.66667V3.33333C7.47097 2.83333 7.13929 2.5 6.64178 2.5C6.14427 2.5 5.81259 2.83333 5.81259 3.33333V3.83333H4.56881C2.91044 3.83333 1.66666 5.08333 1.66666 6.66667V14.6667C1.66666 16.25 2.91044 17.5 4.56881 17.5H15.4312C17.0066 17.5 18.3333 16.25 18.3333 14.6667V6.66667C18.2504 5.08333 17.0066 3.83333 15.3482 3.83333ZM15.3482 15.8333H4.56881C3.90546 15.8333 3.32503 15.3333 3.32503 14.6667V9.5H16.592V14.6667C16.592 15.3333 16.0116 15.8333 15.3482 15.8333Z" fill="black"/>
</svg>
